<svg width="528" height="542" viewBox="0 0 528 542" fill="none" xmlns="http://www.w3.org/2000/svg">
<g clip-path="url(#clip0_21_170)">
<rect width="528" height="542" fill="#D6E2FF"/>
<path fill-rule="evenodd" clip-rule="evenodd" d="M423.22 147.504C353.512 157.27 321.98 219.354 269.915 256.124C229.891 284.391 177.046 302.426 151.658 339.291C126.647 375.608 130.306 418.154 130.061 459.2C129.814 500.41 132.255 540.89 150.22 579.743C170.774 624.196 193.181 670.661 241.417 700.026C292.214 730.951 358.789 752.063 423.22 745.942C486.392 739.941 528.474 695.64 580.693 667.795C628.288 642.416 690.032 628.222 717.381 589.086C744.565 550.184 724.232 503.276 726.459 459.2C728.785 413.164 750.512 366.92 730.805 323.385C709.565 276.464 664.785 237.823 612.787 208.09C556.988 176.183 491.752 137.903 423.22 147.504Z" fill="#FFA3A3"/>
<path fill-rule="evenodd" clip-rule="evenodd" d="M470.224 242.366C530.317 251.238 557.5 307.641 602.383 341.046C636.888 366.726 682.443 383.111 704.329 416.602C725.89 449.595 722.736 488.248 722.948 525.537C723.16 562.976 721.056 599.752 705.569 635.049C687.85 675.434 668.534 717.647 626.951 744.325C583.16 772.42 525.768 791.6 470.224 786.039C415.765 780.587 379.488 740.34 334.472 715.044C293.441 691.987 240.213 679.092 216.637 643.538C193.202 608.196 210.731 565.58 208.811 525.537C206.806 483.715 188.076 441.703 205.065 402.152C223.375 359.525 261.979 324.42 306.804 297.408C354.907 268.421 411.145 233.644 470.224 242.366Z" fill="#FFD6D6"/>
<path fill-rule="evenodd" clip-rule="evenodd" d="M528.668 876.569C591.509 867.274 619.934 808.186 666.869 773.19C702.951 746.287 750.589 729.122 773.476 694.036C796.023 659.471 792.724 618.978 792.945 579.913C793.167 540.692 790.967 502.164 774.772 465.186C756.243 422.878 736.044 378.655 692.56 350.707C646.768 321.274 586.751 301.181 528.668 307.007C471.72 312.719 433.784 354.882 386.711 381.383C343.804 405.538 288.143 419.046 263.489 456.294C238.983 493.319 257.313 537.964 255.305 579.913C253.208 623.727 233.622 667.74 251.388 709.174C270.535 753.831 310.903 790.608 357.778 818.906C408.08 849.274 466.889 885.706 528.668 876.569Z" fill="#F4F5F9"/>
<path d="M381 475.167V514.5M341.667 514.5H420.333M410.825 400.827C411.79 401.385 412.592 402.188 413.149 403.155C413.707 404.121 414 405.218 414 406.333C414 407.449 413.707 408.545 413.149 409.512C412.592 410.478 411.79 411.281 410.825 411.84L370.852 434.968C369.887 435.526 368.791 435.821 367.676 435.821C366.561 435.821 365.465 435.527 364.5 434.968C363.535 434.41 362.733 433.606 362.178 432.64C361.622 431.673 361.33 430.577 361.333 429.461V383.205C361.331 382.092 361.623 380.997 362.178 380.031C362.734 379.066 363.534 378.264 364.497 377.706C365.461 377.147 366.555 376.853 367.669 376.852C368.783 376.851 369.877 377.143 370.842 377.699L410.825 400.827Z" stroke="#303030" stroke-width="10" stroke-linecap="round" stroke-linejoin="round"/>
<path d="M459.667 337.5H302.333C291.472 337.5 282.667 346.305 282.667 357.167V455.5C282.667 466.362 291.472 475.167 302.333 475.167H459.667C470.528 475.167 479.333 466.362 479.333 455.5V357.167C479.333 346.305 470.528 337.5 459.667 337.5Z" stroke="#303030" stroke-width="10" stroke-linecap="round" stroke-linejoin="round"/>
</g>
<defs>
<clipPath id="clip0_21_170">
<rect width="528" height="542" fill="white"/>
</clipPath>
</defs>
</svg>
